/* XPM */
static char *result[] = {
/* columns rows colors chars-per-pixel */
"64 64 4 1 ",
"  c #FFFF15",
". c #FFFF16",
"X c #FFFF17",
"o c None",
/* pixels */
"oooooooooooooooooooooooooooooooooooooooooooooooooooooooooooooooo",
"oooooooooooooooooooooooooooooooooooooooooooooooooooooooooooooooo",
"oooooooooooooooooooooooooooooooooooooooooooooooooooooooooooooooo",
"oooooooooooooooooooooooooooooooooooooooooooooooooooooooooooooooo",
"oooooooooooooooooooooooooooooooooooooooooooooooooooooooooooooooo",
"oooooooooooooooooooooooooooooooooooooooooooooooooooooooooooooooo",
"oooooooooooooooooooooooooooooooooooooooooooooooooooooooooooooooo",
"oooooooooooooooooooooooooooooooooooooooooooooooooooooooooooooooo",
"oooooooooooooooooooooooooooooooooooooooooooooooooooooooooooooooo",
"oooooooooooooooooooooooooooooooooooooooooooooooooooooooooooooooo",
"oooooooooooooooooooooooooo ............Xoooooooooooooooooooooooo",
"ooooooooooooooooooooooo...................oooooooooooooooooooooo",
"oooooooooooooooooooooo......................oooooooooooooooooooo",
"ooooooooooooooooooooX.........................oooooooooooooooooo",
"ooooooooooooooooooo............................ooooooooooooooooo",
"ooooooooooooooooo...............................oooooooooooooooo",
"ooooooooooooooooo................................ooooooooooooooo",
"oooooooooooooooo..................................oooooooooooooo",
"ooooooooooooooo....................................ooooooooooooo",
"oooooooooooooo.....................................Xoooooooooooo",
"ooooooooooooo ......................................oooooooooooo",
"ooooooooooooo........................................ooooooooooo",
"ooooooooooooX......................................Xoooooooooooo",
"oooooooooooo.....................................Xoooooooooooooo",
"oooooooooooo....................................oooooooooooooooo",
"ooooooooooo...................................oooooooooooooooooo",
"ooooooooooo ................................oooooooooooooooooooo",
"ooooooooooo...............................oooooooooooooooooooooo",
"ooooooooooo.............................oooooooooooooooooooooooo",
"oooooooooo............................oooooooooooooooooooooooooo",
"ooooooooooX.........................oooooooooooooooooooooooooooo",
"oooooooooo........................oooooooooooooooooooooooooooooo",
"ooooooooooX.......................oooooooooooooooooooooooooooooo",
"oooooooooo..........................oooooooooooooooooooooooooooo",
"oooooooooo........................... oooooooooooooooooooooooooo",
"oooooooooo..............................oooooooooooooooooooooooo",
"ooooooooooo..............................Xoooooooooooooooooooooo",
"ooooooooooo.................................oooooooooooooooooooo",
"ooooooooooo...................................oooooooooooooooooo",
"ooooooooooo.................................... oooooooooooooooo",
"oooooooooooo..................................... oooooooooooooo",
"oooooooooooo....................................... oooooooooooo",
"ooooooooooooo........................................ooooooooooo",
"ooooooooooooo.......................................oooooooooooo",
"oooooooooooooo......................................oooooooooooo",
"ooooooooooooooo....................................ooooooooooooo",
"oooooooooooooooX..................................oooooooooooooo",
"oooooooooooooooo .................................oooooooooooooo",
"ooooooooooooooooo................................ooooooooooooooo",
"oooooooooooooooooo ............................ooooooooooooooooo",
"oooooooooooooooooooo..........................oooooooooooooooooo",
"ooooooooooooooooooooo........................ooooooooooooooooooo",
"ooooooooooooooooooooooo................... ooooooooooooooooooooo",
"oooooooooooooooooooooooooX...............ooooooooooooooooooooooo",
"oooooooooooooooooooooooooooooX.... . ooooooooooooooooooooooooooo",
"oooooooooooooooooooooooooooooooooooooooooooooooooooooooooooooooo",
"oooooooooooooooooooooooooooooooooooooooooooooooooooooooooooooooo",
"oooooooooooooooooooooooooooooooooooooooooooooooooooooooooooooooo",
"oooooooooooooooooooooooooooooooooooooooooooooooooooooooooooooooo",
"oooooooooooooooooooooooooooooooooooooooooooooooooooooooooooooooo",
"oooooooooooooooooooooooooooooooooooooooooooooooooooooooooooooooo",
"oooooooooooooooooooooooooooooooooooooooooooooooooooooooooooooooo",
"oooooooooooooooooooooooooooooooooooooooooooooooooooooooooooooooo",
"oooooooooooooooooooooooooooooooooooooooooooooooooooooooooooooooo"
};
