/* XPM */
static char *result[] = {
/* columns rows colors chars-per-pixel */
"64 64 4 1 ",
"  c #FFFF15",
". c #FFFF16",
"X c #FFFF17",
"o c None",
/* pixels */
"oooooooooooooooooooooooooooooooooooooooooooooooooooooooooooooooo",
"oooooooooooooooooooooooooooooooooooooooooooooooooooooooooooooooo",
"oooooooooooooooooooooooooooooooooooooooooooooooooooooooooooooooo",
"oooooooooooooooooooooooooooooooooooooooooooooooooooooooooooooooo",
"oooooooooooooooooooooooooooooooooooooooooooooooooooooooooooooooo",
"oooooooooooooooooooooooooooooooooooooooooooooooooooooooooooooooo",
"oooooooooooooooooooooooooooooooooooooooooooooooooooooooooooooooo",
"oooooooooooooooooooooooooooooooooooooooooooooooooooooooooooooooo",
"oooooooooooooooooooooooooooooooooooooooooooooooooooooooooooooooo",
"oooooooooooooooooooooooooooooooooooooooooooooooooooooooooooooooo",
"oooooooooooooooooooooooooooooooooooooooooooooooooooooooooooooooo",
"ooooooooooooooooooooo.oooooooooooooooooooo.ooooooooooooooooooooo",
"oooooooooooooooooooX..Xoooooooooooooooooo ...ooooooooooooooooooo",
"oooooooooooooooooo.....oooooooooooooooooo.....oooooooooooooooooo",
"ooooooooooooooooo......Xoooooooooooooooo .......oooooooooooooooo",
"oooooooooooooooo........oooooooooooooooo.........ooooooooooooooo",
"ooooooooooooooo..........oooooooooooooo .........ooooooooooooooo",
"oooooooooooooo...........oooooooooooooo...........oooooooooooooo",
"ooooooooooooo.............oooooooooooo.............ooooooooooooo",
"ooooooooooooo.............oooooooooooo..............oooooooooooo",
"oooooooooooo...............oooooooooo...............oooooooooooo",
"oooooooooooo...............oooooooooo............... ooooooooooo",
"ooooooooooo.................ooooooooX................ooooooooooo",
"ooooooooooo.................oooooooo..................oooooooooo",
"ooooooooooX..................oooooo...................oooooooooo",
"oooooooooo...................oooooo...................oooooooooo",
"oooooooooo....................oooo ...................oooooooooo",
"oooooooooo....................oooo.................... ooooooooo",
"oooooooooo.....................oo......................ooooooooo",
"oooooooooo.....................oo..................... ooooooooo",
"oooooooooo.............................................ooooooooo",
"oooooooooo.............................................ooooooooo",
"oooooooooo.............................................ooooooooo",
"oooooooooo.............................................ooooooooo",
"oooooooooo............................................Xooooooooo",
"oooooooooo............................................oooooooooo",
"oooooooooo............................................oooooooooo",
"oooooooooo ...........................................oooooooooo",
"ooooooooooo..........................................Xoooooooooo",
"ooooooooooo..........................................ooooooooooo",
"ooooooooooo..........................................ooooooooooo",
"oooooooooooo........................................oooooooooooo",
"ooooooooooooo.......................................oooooooooooo",
"oooooooooooooX.....................................ooooooooooooo",
"oooooooooooooo....................................oooooooooooooo",
"ooooooooooooooo.................................. oooooooooooooo",
"ooooooooooooooo..................................ooooooooooooooo",
"ooooooooooooooooo.............................. oooooooooooooooo",
"oooooooooooooooooo............................Xooooooooooooooooo",
"ooooooooooooooooooo..........................ooooooooooooooooooo",
"oooooooooooooooooooo .......................oooooooooooooooooooo",
"ooooooooooooooooooooooX...................oooooooooooooooooooooo",
"ooooooooooooooooooooooooo. .............oooooooooooooooooooooooo",
"ooooooooooooooooooooooooooooo.X.X...oooooooooooooooooooooooooooo",
"oooooooooooooooooooooooooooooooooooooooooooooooooooooooooooooooo",
"oooooooooooooooooooooooooooooooooooooooooooooooooooooooooooooooo",
"oooooooooooooooooooooooooooooooooooooooooooooooooooooooooooooooo",
"oooooooooooooooooooooooooooooooooooooooooooooooooooooooooooooooo",
"oooooooooooooooooooooooooooooooooooooooooooooooooooooooooooooooo",
"oooooooooooooooooooooooooooooooooooooooooooooooooooooooooooooooo",
"oooooooooooooooooooooooooooooooooooooooooooooooooooooooooooooooo",
"oooooooooooooooooooooooooooooooooooooooooooooooooooooooooooooooo",
"oooooooooooooooooooooooooooooooooooooooooooooooooooooooooooooooo",
"oooooooooooooooooooooooooooooooooooooooooooooooooooooooooooooooo"
};
