/* XPM */
static char *result[] = {
/* columns rows colors chars-per-pixel */
"64 64 174 2 ",
"   c #12125C",
".  c #12125D",
"X  c #13125D",
"o  c #13135D",
"O  c #11115F",
"+  c #13135E",
"@  c #0E0E6D",
"#  c #141461",
"$  c #141465",
"%  c #151569",
"&  c #0E0E71",
"*  c #0F0F71",
"=  c #101077",
"-  c #1A1A72",
";  c #1A1A73",
":  c #1B1B77",
">  c #1C1C78",
",  c #1C1C7C",
"<  c #1D1D7C",
"1  c #1D1D7D",
"2  c #1E1E7C",
"3  c #1E1E7D",
"4  c #1D1D7E",
"5  c #1E1E7F",
"6  c #131387",
"7  c #1E1E81",
"8  c #1F1F83",
"9  c #181885",
"0  c #181887",
"q  c #11118B",
"w  c #14148A",
"e  c #14148B",
"r  c #15158C",
"t  c #1A1A89",
"y  c #1B1B8A",
"u  c #101093",
"i  c #111194",
"p  c #131394",
"a  c #131396",
"s  c #131397",
"d  c #181892",
"f  c #1B1B96",
"g  c #1E1E98",
"h  c #222287",
"j  c #202089",
"k  c #232388",
"l  c #232389",
"z  c #20208A",
"x  c #23238A",
"c  c #24248A",
"v  c #24248B",
"b  c #25258B",
"n  c #20208C",
"m  c #21218C",
"M  c #21218D",
"N  c #25258E",
"B  c #25258F",
"V  c #26268F",
"C  c #242490",
"Z  c #262690",
"A  c #272793",
"S  c #272796",
"D  c #282897",
"F  c #282898",
"G  c #282899",
"H  c #29299A",
"J  c #1313A8",
"K  c #1313A9",
"L  c #1313AA",
"P  c #1413A8",
"I  c #1413A9",
"U  c #1513A9",
"Y  c #1314A9",
"T  c #1414A8",
"R  c #1414A9",
"E  c #1514A9",
"W  c #1415A9",
"Q  c #1515A9",
"!  c #1414AA",
"~  c #1414AC",
"^  c #1616AE",
"/  c #1616AF",
"(  c #1313B0",
")  c #1313B1",
"_  c #1313B2",
"`  c #1313B3",
"'  c #1717B1",
"]  c #1414B2",
"[  c #1414B4",
"{  c #1414B5",
"}  c #1818B2",
"|  c #1919B2",
" . c #1919B3",
".. c #191AB2",
"X. c #1A1AB2",
"o. c #1818B7",
"O. c #1717B8",
"+. c #1616B9",
"@. c #1414BA",
"#. c #1414BB",
"$. c #1515BB",
"%. c #1717BA",
"&. c #1717BB",
"*. c #1414BC",
"=. c #1717BC",
"-. c #1414BE",
";. c #1515BF",
":. c #1818B8",
">. c #1818B9",
",. c #1919B9",
"<. c #1818BC",
"1. c #1818BD",
"2. c #1515C3",
"3. c #1616CC",
"4. c #1616CD",
"5. c #1616CE",
"6. c #1717CF",
"7. c #1818CF",
"8. c #1717D3",
"9. c #1717D5",
"0. c #1717D6",
"q. c #1717D7",
"w. c #1817D6",
"e. c #1817D7",
"r. c #1818D0",
"t. c #1818D5",
"y. c #1818D6",
"u. c #1818D7",
"i. c #1717D9",
"p. c #1717DA",
"a. c #1717DB",
"s. c #1717DC",
"d. c #1817DB",
"f. c #1817DC",
"g. c #1917DC",
"h. c #1718DC",
"j. c #1818DA",
"k. c #1818DB",
"l. c #1818DC",
"z. c #1818DD",
"x. c #1818DE",
"c. c #1919DE",
"v. c #1818DF",
"b. c #1717E0",
"n. c #1817E0",
"m. c #1818E0",
"M. c #1918E0",
"N. c #1919E0",
"B. c #1818E1",
"V. c #1818E2",
"C. c #1918E2",
"Z. c #1919E2",
"A. c #1818E3",
"S. c #1918E3",
"D. c #1919E3",
"F. c #1A19E3",
"G. c #191AE3",
"H. c #1A1AE3",
"J. c #1918E4",
"K. c #1919E4",
"L. c #1919E5",
"P. c #1919E6",
"I. c #1919E7",
"U. c #1919EA",
"Y. c #1919EB",
"T. c #1A1AEA",
"R. c #1A1AEB",
"E. c #1919EC",
"W. c #1919ED",
"Q. c #1A1AEC",
"!. c #1A1AED",
"~. c #1919EE",
"^. c #1A1AEE",
"/. c None",
/* pixels */
"/././././.4 | m.N.u.0.0.0.0.w.y.y.y.y.y.0.9.y.y.y.y.w.w.0.0.0.0.y.y.y.9.9.9.y.y.9.9.y.y.0.0.9.9.0.0.0.0.0.9.e.M.x.*././././././.",
"/./././.5 t :.m.P.K.D.S.S.S.S.F.G.D.D.D.D.Z.D.D.D.D.S.S.D.D.A.D.D.H.D.V.V.V.D.D.V.V.D.D.A.A.V.S.S.S.S.A.A.S.J.I.v.-././././././.",
"/././.j f ,.r.p.z.k.h.f.g.f.f.l.l.l.l.l.l.k.l.l.l.l.f.f.l.l.s.l.l.l.l.a.a.a.k.k.a.a.l.l.s.s.a.f.g.f.f.s.s.f.f.x.i.8.2.u /./././.",
"/.A C g >.!.E.4.] ~ ! R U I P J J R R Q T T R R Q R K Y R T J T R Q T J J J J J J J R T J J J P U I I K K J L ` 4.R.^.;././././.",
"S h f &.9.^.^.@.* % # X X X . . . . o o . . o o o . . . o . . . o o . . . . . . . . . . . . . . X X . . .   O & $.^.^.9.=.a /./.",
"8 y >.W.^.j.) e < x v l l l l l l l l l l l l l l l l l l l l l l l l l l l l l l l l l l l l l l l l l l l k 3 r ) j.~.Q.<.0 4 ",
" .O.6.E.^.) d n V F H H H H H H H H H H H H H H H H H H H H H H H H H H H H H H H H H H H H H H H H H H H H G Z m d ) ~.E.7.:.X.",
"b.m.p.5.$.6 z H G F F F F F F F F F F F F F F F F F F F F F F F F F F F F F F F F F F F F F F F F F F F F F F G H z 6 #.4.p.B.b.",
"m.I.z.[ = : b G F F F F F F F F F F F F F F F F F F F F F F F F F F F F F F F F F F F F F F F F F F F F F F F F G b : = [ c.I.m.",
"q.L.k.' 7 B D F F F F F F F F F F F F F F F F F F F F F F F F F F F F F F F F F F F F F F F F F F F F F F F F F F D B 7 } k.L.q.",
"y.K.k./ > Z G F F F F F F F F F F F F F F F F F F F F F F F F F F F F F F F F F F F F F F F F F F F F F F F F F F G Z > / p.D.9.",
"y.D.a.^ - N G F F F F F F F F F F F F F F F F F F F F F F F F F F F F F F F F F F F F F F F F F F F F F F F F F F G N - ^ k.D.0.",
"0.A.a./ ; N G F F F F F F F F F F F F F F F F F F F F F F F F F F F F F F F F F F F F F F F F F F F F F F F F F F G N ; / k.D.0.",
"0.D.a./ ; N G F F F F F F F F F F F F F F F F F F F F F F F F F F F F F F F F F F F F F F F F F F F F F F F F F F G N ; / k.D.0.",
"y.D.k./ ; N G F F F F F F F F F F F F F F F F F F F F F F F F F F F F F F F F F F F F F F F F F F F F F F F F F F G N ; / k.D.0.",
"y.H.k./ ; N G F F F F F F F F F F F F F F F F F F F F F F F F F F F F F F F F F F F F F F F F F F F F F F F F F F G N ; / k.D.y.",
"y.D.a./ ; N G F F F F F F F F F F F F F F F F F F F F F F F F F F F F F F F F F F F F F F F F F F F F F F F F F F G N ; / k.D.y.",
"0.D.a./ ; N G F F F F F F F F F F F F F F F F F F F F F F F F F F F F F F F F F F F F F F F F F F F F F F F F F F G N ; / k.D.y.",
"y.D.k./ ; N G F F F F F F F F F F F F F F F F F F F F F F F F F F F F F F F F F F F F F F F F F F F F F F F F F F G N ; / k.D.y.",
"y.D.k./ ; N G F F F F F F F F F F F F F F F F F F F F F F F F F F F F F F F F F F F F F F F F F F F F F F F F F F G N ; / k.D.y.",
"y.D.k./ ; N G F F F F F F F F F F F F F F F F F F F F F F F F F F F F F F F F F F F F F F F F F F F F F F F F F F G N ; / k.D.y.",
"y.D.k./ ; N G F F F F F F F F F F F F F F F F F F F F F F F F F F F F F F F F F F F F F F F F F F F F F F F F F F G N ; / k.D.y.",
"0.S.d./ ; N G F F F F F F F F F F F F F F F F F F F F F F F F F F F F F F F F F F F F F F F F F F F F F F F F F F G N ; / k.D.0.",
"0.S.d./ ; N G F F F F F F F F F F F F F F F F F F F F F F F F F F F F F F F F F F F F F F F F F F F F F F F F F F G N ; / k.D.0.",
"0.S.a./ ; N G F F F F F F F F F F F F F F F F F F F F F F F F F F F F F F F F F F F F F F F F F F F F F F F F F F G N ; / k.D.0.",
"0.D.k./ ; N G F F F F F F F F F F F F F F F F F F F F F F F F F F F F F F F F F F F F F F F F F F F F F F F F F F G N ; ^ k.D.0.",
"0.D.k./ ; N G F F F F F F F F F F F F F F F F F F F F F F F F F F F F F F F F F F F F F F F F F F F F F F F F F F G N ; ^ p.V.9.",
"0.D.k./ ; N G F F F F F F F F F F F F F F F F F F F F F F F F F F F F F F F F F F F F F F F F F F F F F F F F F F G N ; ^ p.V.9.",
"y.D.k./ ; N G F F F F F F F F F F F F F F F F F F F F F F F F F F F F F F F F F F F F F F F F F F F F F F F F F F G N ; ^ p.V.9.",
"y.D.a./ ; N G F F F F F F F F F F F F F F F F F F F F F F F F F F F F F F F F F F F F F F F F F F F F F F F F F F G N ; ^ a.A.0.",
"y.D.a./ ; N G F F F F F F F F F F F F F F F F F F F F F F F F F F F F F F F F F F F F F F F F F F F F F F F F F F G N ; / a.A.0.",
"0.A.a./ ; N G F F F F F F F F F F F F F F F F F F F F F F F F F F F F F F F F F F F F F F F F F F F F F F F F F F G N ; / a.A.0.",
"0.A.a./ ; N G F F F F F F F F F F F F F F F F F F F F F F F F F F F F F F F F F F F F F F F F F F F F F F F F F F G N ; / a.A.0.",
"0.A.a./ ; N G F F F F F F F F F F F F F F F F F F F F F F F F F F F F F F F F F F F F F F F F F F F F F F F F F F G N ; / a.D.y.",
"0.A.a.^ ; N G F F F F F F F F F F F F F F F F F F F F F F F F F F F F F F F F F F F F F F F F F F F F F F F F F F G N ; / a.D.y.",
"9.V.p.^ ; N G F F F F F F F F F F F F F F F F F F F F F F F F F F F F F F F F F F F F F F F F F F F F F F F F F F G N ; / k.D.y.",
"9.V.p.^ ; N G F F F F F F F F F F F F F F F F F F F F F F F F F F F F F F F F F F F F F F F F F F F F F F F F F F G N ; / k.D.0.",
"9.V.p.^ ; N G F F F F F F F F F F F F F F F F F F F F F F F F F F F F F F F F F F F F F F F F F F F F F F F F F F G N ; / k.D.0.",
"0.D.k.^ ; N G F F F F F F F F F F F F F F F F F F F F F F F F F F F F F F F F F F F F F F F F F F F F F F F F F F G N ; / k.D.0.",
"0.D.k./ ; N G F F F F F F F F F F F F F F F F F F F F F F F F F F F F F F F F F F F F F F F F F F F F F F F F F F G N ; / a.S.0.",
"0.D.k./ ; N G F F F F F F F F F F F F F F F F F F F F F F F F F F F F F F F F F F F F F F F F F F F F F F F F F F G N ; / d.S.0.",
"0.D.k./ ; N G F F F F F F F F F F F F F F F F F F F F F F F F F F F F F F F F F F F F F F F F F F F F F F F F F F G N ; / d.S.0.",
"y.D.k./ ; N G F F F F F F F F F F F F F F F F F F F F F F F F F F F F F F F F F F F F F F F F F F F F F F F F F F G N ; / k.D.y.",
"y.D.k./ ; N G F F F F F F F F F F F F F F F F F F F F F F F F F F F F F F F F F F F F F F F F F F F F F F F F F F G N ; / k.D.y.",
"y.D.k./ ; N G F F F F F F F F F F F F F F F F F F F F F F F F F F F F F F F F F F F F F F F F F F F F F F F F F F G N ; / k.D.y.",
"y.D.k./ ; N G F F F F F F F F F F F F F F F F F F F F F F F F F F F F F F F F F F F F F F F F F F F F F F F F F F G N ; / k.D.y.",
"y.D.k./ ; N G F F F F F F F F F F F F F F F F F F F F F F F F F F F F F F F F F F F F F F F F F F F F F F F F F F G N ; / a.D.0.",
"y.D.k./ ; N G F F F F F F F F F F F F F F F F F F F F F F F F F F F F F F F F F F F F F F F F F F F F F F F F F F G N ; / a.D.y.",
"y.D.k./ ; N G F F F F F F F F F F F F F F F F F F F F F F F F F F F F F F F F F F F F F F F F F F F F F F F F F F G N ; / k.H.y.",
"0.D.k./ ; N G F F F F F F F F F F F F F F F F F F F F F F F F F F F F F F F F F F F F F F F F F F F F F F F F F F G N ; / k.D.y.",
"0.D.k./ ; N G F F F F F F F F F F F F F F F F F F F F F F F F F F F F F F F F F F F F F F F F F F F F F F F F F F G N ; / a.D.0.",
"0.D.k./ ; N G F F F F F F F F F F F F F F F F F F F F F F F F F F F F F F F F F F F F F F F F F F F F F F F F F F G N ; / a.A.0.",
"0.D.k.^ - N G F F F F F F F F F F F F F F F F F F F F F F F F F F F F F F F F F F F F F F F F F F F F F F F F F F G N - ^ a.D.y.",
"9.D.p./ > Z G F F F F F F F F F F F F F F F F F F F F F F F F F F F F F F F F F F F F F F F F F F F F F F F F F F G Z > / k.K.y.",
"q.L.k.} 7 B D F F F F F F F F F F F F F F F F F F F F F F F F F F F F F F F F F F F F F F F F F F F F F F F F F F D B 7 ' k.L.q.",
"m.I.c.[ = : b G F F F F F F F F F F F F F F F F F F F F F F F F F F F F F F F F F F F F F F F F F F F F F F F F G b : = [ z.I.m.",
"b.B.p.4.#.6 z H G F F F F F F F F F F F F F F F F F F F F F F F F F F F F F F F F F F F F F F F F F F F F F F G H z 6 $.5.p.m.b.",
"X.:.7.Y.~.) d M Z G H H H H H H H H H H H H H H H H H H H H H H H H H H H H H H H H H H H H H H H H H H H H G V n d ) ^.E.7.o.X.",
"1 0 <.^.W.j.( w 2 l c l l l l l l l l l l l l l l l l l l l l l l l l l l l l l l l l l l l l l l l l l l l h < e ) j.^.E.%.9 , ",
"/./.i ;.9.Q.T.{ @ $ # + . . o o . . . . . . . . . . . . . . . . . . . . . . . o o o . . o o o o X X . . .   O & #.^.^.9.+.q /./.",
"/./././.;.^.U.3._ ~ ! R R R R Q R K K K K K K K J J J J K K K K K K K K J J T Q R R R R Q R R W E I P J J J K _ 4.E.Q.&.s /././.",
"/./././.i 1.7.p.x.f.f.s.s.l.l.l.l.s.s.s.f.l.l.l.k.a.a.a.s.l.l.l.l.l.l.s.s.s.l.l.l.l.l.l.l.l.l.l.l.f.d.a.a.l.l.z.p.r.<.p /./././.",
"/././././.0 o.m.I.J.S.A.A.D.D.H.D.A.A.A.S.F.D.D.D.V.V.V.A.D.H.D.D.H.D.A.A.A.D.D.D.D.D.D.D.D.D.G.D.S.C.V.A.D.K.P.m.:.0 /././././.",
"/././././.4 ..n.M.e.9.0.0.0.y.y.t.9.0.0.w.w.y.y.0.9.9.9.9.y.y.y.y.y.y.0.0.0.0.0.y.y.0.0.9.9.y.y.y.9.9.9.0.0.u.N.m.| 4 /././././."
};
