/* XPM */
static char *result[] = {
/* columns rows colors chars-per-pixel */
"64 64 4 1 ",
"  c #FFFF15",
". c #FFFF16",
"X c #FFFF17",
"o c None",
/* pixels */
"oooooooooooooooooooooooooooooooooooooooooooooooooooooooooooooooo",
"oooooooooooooooooooooooooooooooooooooooooooooooooooooooooooooooo",
"oooooooooooooooooooooooooooooooooooooooooooooooooooooooooooooooo",
"oooooooooooooooooooooooooooooooooooooooooooooooooooooooooooooooo",
"oooooooooooooooooooooooooooooooooooooooooooooooooooooooooooooooo",
"oooooooooooooooooooooooooooooooooooooooooooooooooooooooooooooooo",
"oooooooooooooooooooooooooooooooooooooooooooooooooooooooooooooooo",
"oooooooooooooooooooooooooooooooooooooooooooooooooooooooooooooooo",
"oooooooooooooooooooooooooooooooooooooooooooooooooooooooooooooooo",
"oooooooooooooooooooooooooooooooooooooooooooooooooooooooooooooooo",
"oooooooooooooooooooooooooooo...X.X.ooooooooooooooooooooooooooooo",
"oooooooooooooooooooooooo............. .ooooooooooooooooooooooooo",
"oooooooooooooooooooooo...................Xoooooooooooooooooooooo",
"oooooooooooooooooooo....................... oooooooooooooooooooo",
"ooooooooooooooooooo..........................ooooooooooooooooooo",
"oooooooooooooooooX............................oooooooooooooooooo",
"oooooooooooooooo ..............................ooooooooooooooooo",
"ooooooooooooooo..................................ooooooooooooooo",
"oooooooooooooo ..................................ooooooooooooooo",
"oooooooooooooo....................................oooooooooooooo",
"ooooooooooooo.....................................Xooooooooooooo",
"oooooooooooo.......................................ooooooooooooo",
"oooooooooooo........................................oooooooooooo",
"ooooooooooo..........................................ooooooooooo",
"ooooooooooo..........................................ooooooooooo",
"ooooooooooX..........................................ooooooooooo",
"oooooooooo........................................... oooooooooo",
"oooooooooo............................................oooooooooo",
"oooooooooo............................................oooooooooo",
"oooooooooX............................................oooooooooo",
"ooooooooo.............................................oooooooooo",
"ooooooooo.............................................oooooooooo",
"ooooooooo.............................................oooooooooo",
"ooooooooo.............................................oooooooooo",
"ooooooooo .....................oo.....................oooooooooo",
"ooooooooo......................oo.....................oooooooooo",
"ooooooooo ....................oooo....................oooooooooo",
"oooooooooo................... oooo....................oooooooooo",
"oooooooooo...................oooooo...................oooooooooo",
"oooooooooo...................oooooo..................Xoooooooooo",
"oooooooooo..................oooooooo.................ooooooooooo",
"ooooooooooo................Xoooooooo.................ooooooooooo",
"ooooooooooo ...............oooooooooo...............oooooooooooo",
"oooooooooooo...............oooooooooo...............oooooooooooo",
"oooooooooooo..............oooooooooooo.............ooooooooooooo",
"ooooooooooooo.............oooooooooooo.............ooooooooooooo",
"oooooooooooooo...........oooooooooooooo...........oooooooooooooo",
"ooooooooooooooo......... oooooooooooooo..........ooooooooooooooo",
"ooooooooooooooo.........oooooooooooooooo........oooooooooooooooo",
"oooooooooooooooo....... ooooooooooooooooX......ooooooooooooooooo",
"oooooooooooooooooo.....oooooooooooooooooo.....oooooooooooooooooo",
"ooooooooooooooooooo... ooooooooooooooooooX..Xooooooooooooooooooo",
"ooooooooooooooooooooo.oooooooooooooooooooo.ooooooooooooooooooooo",
"oooooooooooooooooooooooooooooooooooooooooooooooooooooooooooooooo",
"oooooooooooooooooooooooooooooooooooooooooooooooooooooooooooooooo",
"oooooooooooooooooooooooooooooooooooooooooooooooooooooooooooooooo",
"oooooooooooooooooooooooooooooooooooooooooooooooooooooooooooooooo",
"oooooooooooooooooooooooooooooooooooooooooooooooooooooooooooooooo",
"oooooooooooooooooooooooooooooooooooooooooooooooooooooooooooooooo",
"oooooooooooooooooooooooooooooooooooooooooooooooooooooooooooooooo",
"oooooooooooooooooooooooooooooooooooooooooooooooooooooooooooooooo",
"oooooooooooooooooooooooooooooooooooooooooooooooooooooooooooooooo",
"oooooooooooooooooooooooooooooooooooooooooooooooooooooooooooooooo",
"oooooooooooooooooooooooooooooooooooooooooooooooooooooooooooooooo"
};
